<?xml version='1.0' encoding='utf-8'?>
<svg xmlns="http://www.w3.org/2000/svg" viewBox="0 0 500 500"><defs><style>.cls-1{isolation:isolate;}.cls-2{fill:#c6c6c6;mix-blend-mode:multiply;opacity:0.21;}.cls-10,.cls-14,.cls-3{fill:#fff;}.cls-10,.cls-3,.cls-4,.cls-5,.cls-6,.cls-7,.cls-9{stroke:#ffa2b7;}.cls-11,.cls-12,.cls-3,.cls-5{stroke-miterlimit:10;}.cls-3{stroke-width:8.16px;}.cls-4,.cls-5{fill:#ffe0e8;}.cls-10,.cls-4,.cls-6,.cls-7,.cls-8,.cls-9{stroke-linecap:round;stroke-linejoin:round;}.cls-10,.cls-4,.cls-6,.cls-8,.cls-9{stroke-width:4.08px;}.cls-5{stroke-width:2.04px;}.cls-6,.cls-7,.cls-8{fill:none;}.cls-7{stroke-width:3.06px;}.cls-8{stroke:#be1622;}.cls-15,.cls-9{fill:#ffa2b7;}.cls-11{fill:#a4902f;stroke:#613a00;stroke-width:1.98px;}.cls-12{fill:#f39200;stroke:#e94e1b;stroke-width:3.96px;}.cls-13{fill:#613a00;}</style></defs><g class="cls-1"><g id="Camada_1" data-name="Camada 1"><ellipse class="cls-2" cx="245.2" cy="441.61" rx="104.2" ry="5.29"/><path class="cls-3" d="M224.72,223.39c-1-1-28.81-24.06-29.86-86.87s35.28-95.26,35.28-95.26S244,28.05,256.61,46.71s18.45,36.34,18.08,86.09-14.81,83.84-14.81,83.84Z"/><path class="cls-4" d="M298,428c1.9,1.72,3.76,4.26,2.81,6.64s-3.76,2.89-6.19,3.12c-8.29.76-17.27.24-24-4.71-1.08-.8-2.16-1.86-2.2-3.19a4.54,4.54,0,0,1,1.44-3c3.07-3.4,9-7.19,13.84-7.08S294.59,424.93,298,428Z"/><path class="cls-4" d="M194.75,430.1c-1.9,1.73-3.76,4.26-2.81,6.64s3.76,2.9,6.18,3.12c8.3.76,17.28.24,24-4.71,1.08-.79,2.16-1.85,2.2-3.19a4.5,4.5,0,0,0-1.45-3c-3.07-3.41-9-7.19-13.83-7.08S198.13,427,194.75,430.1Z"/><path class="cls-3" d="M194.06,398.28c0,30.15,22.7,34,50.69,34s50.68-3.82,50.68-34-36.86-75.19-50.68-75.19S194.06,368.14,194.06,398.28Z"/><path class="cls-3" d="M333.49,254.46c1.34-.55,36-10.71,61.78-68S400.53,85,400.53,85,393,67.42,374.06,79.57s-31.31,26.08-50.65,71.92-19.55,82.86-19.55,82.86Z"/><path class="cls-5" d="M328.06,243.32c.74-.34,19.53-6.49,38.39-44s12.63-67,12.63-67-2.13-11.77-13.07-4S347.37,145,333,175s-18.15,54.5-18.15,54.5Z"/><path class="cls-5" d="M232.84,220.12c-.55-.61-15.37-13.68-17.88-55.56S229.87,98,229.87,98s6.61-10,13.6,1.45,10.5,22.75,11.88,56-4.89,57.24-4.89,57.24Z"/><path class="cls-3" d="M165.62,276c-8.47,41.07,28.75,75.2,81.11,86s100-5.85,108.5-46.91-25.49-91-77.85-101.81S174.08,234.91,165.62,276Z"/><path class="cls-6" d="M260.54,295.76a9,9,0,0,0,17.58,3.62"/><path class="cls-6" d="M243,292.13a9,9,0,0,0,17.58,3.63"/><line class="cls-7" x1="317.47" y1="314.16" x2="336.26" y2="313.91"/><line class="cls-7" x1="317.07" y1="322.11" x2="338.71" y2="328.01"/><line class="cls-7" x1="314.18" y1="329.13" x2="329.13" y2="336.53"/><line class="cls-7" x1="201.36" y1="295.64" x2="184.2" y2="287.99"/><line class="cls-7" x1="198.58" y1="303.1" x2="176.38" y2="299.96"/><line class="cls-7" x1="198.46" y1="310.69" x2="181.81" y2="311.58"/><path class="cls-6" d="M281.75,378.58c-1.73,4-3.54,8.16-6.69,11.19-1.29,1.24-3,2.32-4.77,1.89s-2.61-1.93-3.33-3.41a26.87,26.87,0,0,1-2.62-9.37"/><path class="cls-6" d="M316.09,278.18A24.54,24.54,0,0,0,305,267.75"/><path class="cls-6" d="M216.55,255.92a16,16,0,0,1,10.95-5.31"/><path class="cls-8" d="M310.61,310.66c1.66-8.06-2.6-15.75-9.5-17.17s-13.86,3.95-15.52,12"/><path class="cls-8" d="M234.72,295c1.66-8.06-2.59-15.75-9.5-17.17s-13.85,3.95-15.52,12"/><path class="cls-9" d="M248.22,303.54l-.14,12.59-.14,13.38c.55,6.64,4.71,6.25,6.36,4.51a18.82,18.82,0,0,0,2-3l5.76-11.6,5.9-11.81c-4-.84-6.88-4.42-8.65-8.16A13.57,13.57,0,0,1,248.22,303.54Z"/><path class="cls-4" d="M248.08,316.13l-.14,13.38c.55,6.64,4.71,6.25,6.36,4.51a18.82,18.82,0,0,0,2-3l5.76-11.6a12.43,12.43,0,0,0-14-3.29Z"/><path class="cls-10" d="M211,362.29c-6.91-1.43-18.62-1.42-22.38.82-1.54.91-2,2.89-2.08,4.67s2.09,3.73,3.32,4.82c2.45,2.15,10,5.13,13,6.27"/><path class="cls-11" d="M166.63,339.18c.26.37,11.52-5.19,10.27-11.63-.89-4.63-7.2-1.76-10.67.22a1.26,1.26,0,0,1-1.88-1.21c.34-3.61.15-10-4.72-12.81-7-4-16.1.19-17,6.15-.64,4.15,1.51,9.49,2.87,12.34a.28.28,0,0,1-.45.31c-2.16-2.25-6.32-5.67-10-3.45-5.27,3.17-1.58,7.88,0,9.33s9.34,6.77,15.16,7.24S166.63,339.18,166.63,339.18Z"/><path class="cls-12" d="M175.36,338.09c6.72.65,13.43,3.36,14.59,11.44,1.82,12.61,1.12,33.56-2.5,47.38s-11.08,19.61-16.92,21.37a18,18,0,0,1-3.11.64,18.17,18.17,0,0,1-3.17.27c-6.1,0-14.89-3.45-22.29-15.68s-14-32.1-15.87-44.71c-1.17-8,4.4-12.36,10.53-15C146.52,339.47,165.43,337.14,175.36,338.09Z"/><path class="cls-13" d="M150,369.82v0a7.48,7.48,0,0,0,4.17,5.46,12.38,12.38,0,0,0,13.76-2,7.51,7.51,0,0,0,2.45-6.43v0a2.2,2.2,0,0,0-3.06-1.65,28.86,28.86,0,0,1-14.59,1.94A2.4,2.4,0,0,0,150,369.82Z"/><ellipse class="cls-13" cx="176.62" cy="366.81" rx="4.27" ry="5.5" transform="translate(-50.85 29.17) rotate(-8.26)"/><ellipse class="cls-14" cx="177.94" cy="364.01" rx="1.11" ry="1.43" transform="translate(-157.61 136.92) rotate(-29.86)"/><ellipse class="cls-14" cx="175.6" cy="369.73" rx="0.64" ry="0.82" transform="translate(-160.77 136.51) rotate(-29.86)"/><ellipse class="cls-14" cx="177.02" cy="369.52" rx="0.32" ry="0.41" transform="translate(-160.48 137.19) rotate(-29.86)"/><ellipse class="cls-13" cx="143.94" cy="371.55" rx="4.27" ry="5.5" transform="matrix(0.99, -0.14, 0.14, 0.99, -51.87, 24.52)"/><ellipse class="cls-14" cx="145.26" cy="368.75" rx="1.11" ry="1.43" transform="translate(-164.31 121.28) rotate(-29.86)"/><ellipse class="cls-14" cx="142.92" cy="374.47" rx="0.64" ry="0.82" transform="translate(-167.47 120.87) rotate(-29.86)"/><ellipse class="cls-14" cx="144.34" cy="374.27" rx="0.32" ry="0.41" transform="translate(-167.18 121.55) rotate(-29.86)"/><path class="cls-15" d="M154.15,375.32a12.38,12.38,0,0,0,13.76-2c-1.47-1.49-4.25-2.26-7.29-1.81S155.13,373.48,154.15,375.32Z"/></g></g></svg>